<svg xmlns="http://www.w3.org/2000/svg" width="12.421" height="14.196" viewBox="0 0 12.421 14.196"><path d="M12.089 13.308h-.555V.665A.665.665 0 0010.869 0H1.553a.665.665 0 00-.666.665v12.643H.333a.333.333 0 00-.333.333v.559h12.421v-.555a.333.333 0 00-.332-.337zm-8.54-11.2a.333.333 0 01.333-.333h1.109a.333.333 0 01.333.333v1.108a.333.333 0 01-.333.333H3.882a.333.333 0 01-.333-.333zm0 2.662a.333.333 0 01.333-.333h1.109a.333.333 0 01.333.333v1.108a.333.333 0 01-.333.333H3.882a.333.333 0 01-.333-.333zm1.442 4.1H3.882a.333.333 0 01-.333-.333V7.431a.333.333 0 01.333-.331h1.109a.333.333 0 01.333.333V8.54a.333.333 0 01-.333.332zM7.1 13.308H5.323V10.98a.333.333 0 01.333-.333h1.109a.333.333 0 01.333.333zM8.872 8.54a.333.333 0 01-.333.333H7.431A.333.333 0 017.1 8.54V7.431a.333.333 0 01.331-.331H8.54a.333.333 0 01.333.333zm0-2.662a.333.333 0 01-.333.333H7.431a.333.333 0 01-.331-.333V4.769a.333.333 0 01.333-.333H8.54a.333.333 0 01.333.333zm0-2.662a.333.333 0 01-.333.333H7.431a.333.333 0 01-.331-.333V2.107a.333.333 0 01.333-.333H8.54a.333.333 0 01.333.333z" fill="#007367"/></svg>