<svg xmlns="http://www.w3.org/2000/svg" width="46.086" height="44.426" viewBox="0 0 46.086 44.426"><path d="M13.116 2.785a4.237 4.237 0 014.236 4.236 4.235 4.235 0 01-2.149 3.687 4.22 4.22 0 01-2.146.583 4.237 4.237 0 01-4.236-4.236 4.233 4.233 0 012.148-3.686 4.216 4.216 0 012.147-.584zm.076 31.177v7.149c0 3.1-5.014 3.061-4.977.034l.206-7.881-2.512-.513 3.409-14.134-4.715 6.419a2.113 2.113 0 01-2.4 1.076h0a1.864 1.864 0 01-1.077-2.4l5.686-9.307c1.123-2.952 11.8-2.888 12.913.034l1.235 2.228M18.325 41.11c.036 2.961-5.136 3.17-5.136 0M33.157.999a4.236 4.236 0 014.236 4.236 4.234 4.234 0 01-2.149 3.687 4.216 4.216 0 01-2.146.583 4.236 4.236 0 01-4.236-4.236 4.235 4.235 0 012.148-3.686 4.217 4.217 0 012.147-.584zm.32 27.224l-.01 12.859c0 3.028 5.634 2.983 5.6-.045l-.109-9.046-.137-14.785 2.25 6.726c1.535 4.036 4.512 1.41 3.812-.429l-2.594-10.849c-.781-3.265-17.417-3.1-17.976-.034l-.633 3.476m3.9 24.971c-.034 3.286 5.886 3 5.887-.031m-10.607-3.7v4.277c0 2.42-4.629 2.391-4.594.026l.19-4.3-2.319-.4 3.147-8.009m-1.662 3.926c-.415.706-.756.816-1.634.533m0 0h0m0 0a1.4 1.4 0 01-.994-1.872m0 0l1.981-5.177c1.037-2.306 10.893-2.256 11.919.026l2.233 5.526a1.4 1.4 0 01-.994 1.872h0c-.879.283-1.271-.16-1.76-.835m-1.788-3.973l3.4 7.983-2.542.4.163 4.277c.033 2.313-4.741 2.476-4.741 0m.2-25.038a3.853 3.853 0 013.853 3.853 3.853 3.853 0 01-3.853 3.853 3.853 3.853 0 01-3.853-3.853 3.853 3.853 0 013.853-3.853zm4.967 8.78l.076-8.153-.9 2.68-.311.93" fill="none" stroke="#007367" stroke-linecap="round" stroke-linejoin="round" stroke-width="2"/></svg>