<svg xmlns="http://www.w3.org/2000/svg" width="12.624" height="12.626" viewBox="0 0 12.624 12.626"><path d="M8.566 3.869C8.2 1.596 7.326 0 6.313 0S4.429 1.596 4.06 3.869zm-4.7 2.444a15.956 15.956 0 00.087 1.624H8.67a15.956 15.956 0 00.084-1.629 15.956 15.956 0 00-.084-1.625H3.953a15.955 15.955 0 00-.084 1.63zm8.265-2.444A6.326 6.326 0 008.113.264a8.592 8.592 0 011.273 3.6zM4.511.264a6.322 6.322 0 00-4.019 3.6h2.749a8.557 8.557 0 011.27-3.6zm7.9 4.419H9.487c.053.535.084 1.082.084 1.629s-.03 1.095-.084 1.625H12.4a6.259 6.259 0 00.219-1.629 6.368 6.368 0 00-.212-1.625zm-9.356 1.63c0-.547.031-1.095.084-1.629H.219a6.171 6.171 0 000 3.258h2.917a17.216 17.216 0 01-.081-1.629zM4.06 8.756c.369 2.273 1.24 3.869 2.253 3.869s1.884-1.6 2.253-3.869zm4.055 3.6a6.332 6.332 0 004.022-3.6H9.388a8.592 8.592 0 01-1.273 3.6zm-7.624-3.6a6.326 6.326 0 004.022 3.6 8.592 8.592 0 01-1.273-3.6H.491z" fill="#007367"/></svg>